# xmcd
#
# Track frame offsets: 
#        150
#        21013
#        81728
#        91438
#        125438
#        141849
#        183150
#        199694
#        218815
#        241322
#        262380
#        283215
#        312186
#        328799
#
# Disc length: 4734 seconds
#
# Revision: 0
# Processed by: cddbd v1.5.2PL0 Copyright (c) Steve Scherf et al.
# Submitted via: ExactAudioCopy v0.99pb5
#
DISCID=d8127c0e
DTITLE=Wizzard  - Wizzard Brew.
DYEAR=1900
DGENRE=
TTITLE0=You Can Dance Your Rock 'N' Roll
TTITLE1=Meet Me At The Jailhouse
TTITLE2=Jolly Cup Of Tea
TTITLE3=Buffalo Station - Get On Down To Memphis
TTITLE4=Gotta Crush (About You)
TTITLE5=Wear A Fast Gun
TTITLE6=Ball Park Incident
TTITLE7=The Carlsberg Special (Pianos Demolished Phone 021 373 4472)
TTITLE8=See My Baby Jive
TTITLE9=Bend Over Beethoven
TTITLE10=Angel Fingers (A Teen Ballad)
TTITLE11=You Got The Jump On Me
TTITLE12=Rob Roy's Nightmare (A Bit More H.A.)
TTITLE13=I Wish It Could Be Christmas Everyday
EXTD=
EXTT0=
EXTT1=
EXTT2=
EXTT3=
EXTT4=
EXTT5=
EXTT6=
EXTT7=
EXTT8=
EXTT9=
EXTT10=
EXTT11=
EXTT12=
EXTT13=
PLAYORDER=
